<svg xmlns="http://www.w3.org/2000/svg" width="530" height="300" overflow="visible"><g class="signage-logo"><path fill="#a2207f" stroke="#000" stroke-width="3.706546" d="m261.914 0 84.03 48.515v97.03l-84.03 48.515-84.03-48.515v-97.03z" class="i_sERvWd4"/><g fill="#fff" class="uAAifpA5V_"><path d="M216.752 89.844c-9.124 9.367-12.355 20.6-10.435 33.486-3.244-10.207-3.7-20.454-.207-30.676 3.533-10.343 10.698-17.723 19.71-23.527-6.177 1.961-11.698 4.943-15.843 10.115 2.042-4.196 4.853-7.804 8.287-10.94 3.458-3.154 7.446-5.44 11.778-7.173-7.75 1.42-14.548 4.844-20.646 9.742 8.624-10.318 19.959-14.731 33.081-15.267-2.345-.628-4.807-.854-7.29-.769-2.461.09-4.923.334-7.36.51 4.085-1.47 8.341-2.088 12.714-2.002a48.223 48.223 0 0 0-16.646.572c4.387-2.487 9.059-4.166 14.033-5.005 5.066-.85 9.995-.207 14.838 1.39-4.171-2.816-8.937-4.267-13.523-6.178 1.279.233 2.559.455 3.838.699 4.771.904 9.594 1.294 14.442 1.38 2.477.045 4.95.161 7.365.778 1.755.45 3.413 1.107 4.874 2.229-.875-1.679-2.103-3.054-3.832-3.756-1.643-.667-3.412-1.035-4.848-1.45 4.227-1.053 10.075-.446 14.63 5.404 1.243-1.579 2.892-2.275 4.88-2.28.287 0 .626-.244.849-.466 2.527-2.547 5.246-4.843 8.503-6.41.803-.388 1.688-.642 2.562-.839.314-.071.805.127 1.026.369.122.132-.05.743-.268.936-1.86 1.592-2.501 3.76-2.997 6.025-.259 1.194-.582 2.371-.906 3.696 2.246-.328 4.288-.01 5.85 1.45 1.734-1.288 3.468-2.436 5.034-3.78 1.428-1.225 2.685-2.64 3.98-4.01.803-.849 1.49-1.809 2.33-2.618.33-.314.931-.35 1.41-.506.142.43.436.875.405 1.29-.186 2.492-.308 4.999-.727 7.456-.602 3.533-2.18 6.597-5.022 8.62.876 1.339 1.77 2.572 2.508 3.897.273.49.178 1.178.273 1.95a472.382 472.382 0 0 1-2.501-1.85l-.249.249c1.886 4.226 4.485 7.902 8.428 10.55-3.225-.723-5.925-2.361-8.27-4.66 1.642 2.704 3.786 4.878 6.631 6.308 2.842 1.425 5.885 1.719 9.02 1.451.02.065.045.132.065.197-.641.314-1.264.683-1.93.935-3.878 1.472-7.802 1.23-11.669.04a31.805 31.805 0 0 1-12.734-7.425c.156.252.297.515.47.758 1.981 2.766 4.727 4.545 7.714 6.026 2.044 1.01 4.05 2.098 6.072 3.164.233.122.446.298.653.46 2.734 2.097 3.402 4.459 2.138 7.67-.425 1.087-1.027 2.117-1.366 3.23-.362 1.204-.51 2.467-.743 3.67a4.038 4.038 0 0 1-.99-2.76c.056-2.073.182-4.145.404-6.203.369-3.463-1.395-6.076-4.716-6.739.039.192.065.364.111.526 1.876 6.375 3.55 12.81 5.677 19.099 2.745 8.104 5.854 16.086 8.806 24.12.404 1.097.997 2.087 1.957 2.76 1.82 1.268 2.027 2.987 1.542 4.954-.596 2.432-1.76 4.62-2.998 6.76-.996 1.713-1.824 3.468-2.245 5.418-.626 2.927-2.856 3.964-5.49 4.469-3.458.668-6.026-.823-7.841-3.56-1.714-2.582-3.124-5.367-4.67-8.067-.32-.562-.627-1.132-1.032-1.648 1.866 4.91 3.381 10.015 7.78 13.483-4.934 2.78-9.094.975-10.703-3.489-.66-1.83-.929-3.816-1.273-5.747-.223-1.254-.82-2.093-1.814-2.902a529.925 529.925 0 0 1-12.401-10.43c-1.557-1.346-3.322-2.097-5.298-2.386-2.958-.43-5.79-1.148-8.235-3.2-.207.86-.38 1.613-.567 2.367-1.915 7.643-4.535 15.014-8.675 21.762-2.407 3.922-5.241 7.503-8.68 10.586-.191.171-.388.333-.621.531.934-1.871 1.915-3.656 2.735-5.51 3.112-7.058 4.963-14.388 4.336-22.163-.222-2.781-.732-5.536-1.106-8.3-.653-4.854-.687-9.707-.01-14.57.914-6.523 2.876-12.69 6.117-18.427 1.668-2.953 3.578-5.743 6.121-8.029a8.209 8.209 0 0 1 1.825-1.258c.932-.46 1.613-.055 1.507.955-.11 1.062-.293 2.22-.81 3.124a77.94 77.94 0 0 1-4.24 6.553c-2.234 3.108-4 6.419-4.652 10.221-.96 5.596-.212 10.879 3.227 15.565 1.854 2.528 4.27 4.328 7.38 4.97 4.656.96 9.105-1.234 11.363-5.495 1.932-3.646 1.842-7.416.684-11.239-.723-2.392-1.582-4.737-2.291-7.133-.863-2.932-.696-5.894.041-8.832.026-.096.09-.181.117-.226.334 1.54.62 3.114 1.01 4.665.79 3.15 2.35 5.91 4.344 8.452 1.718 2.204 2.92 4.617 2.987 7.503.02 1.022.652 1.577 1.598 1.663 1.056.097 1.627-.268 1.875-1.4.557-2.563.278-5.04-.991-7.456 1.37 1 2.407 2.228 3.063 3.72a30.526 30.526 0 0 1 1.416 3.968c.54 1.916 1.644 3.312 3.432 4.166.551.263 1.098.546 1.66.778 3.82 1.567 5.1 4.742 5.105 8.257.005 2.517-.906 4.782-2.213 6.899-.052.082-.132.142-.24.259.755-3.313-.03-6.295-1.562-9.125-.833-1.543-2.148-2.437-3.973-2.296-1.748.137-3.291-.414-4.797-1.213-1.411-.748-2.846-1.496-4.485-1.542a11.932 11.932 0 0 0-2.679.238c-.944.191-1.365.753-1.157 1.694.253 1.152.582 2.334 1.142 3.366 1.567 2.901 3.771 5.338 5.971 7.77 1.248 1.38 2.528 2.735 3.796 4.105-.854 1.346-.799 2.775-.566 4.16.515 3.064 1.562 5.967 3.2 8.615 1.118 1.81 2.704 3.084 4.94 3.872-.759-.556-1.34-.96-1.907-1.395-2.012-1.553-3.159-3.644-3.675-6.087-.48-2.28-.86-4.58-1.304-6.996l7.072 1.76c.203-.455.39-.89.586-1.315.9-1.921 2.129-3.574 4.015-4.626 1.713-.955 3.432-1.072 5.08.198.096.075.207.125.425.257-.252.026-.318.05-.344.03-2.265-1.703-4.459-.708-5.944.602-2.058 1.816-2.665 3.988-1.65 6.213a29.617 29.617 0 0 0 2.064 3.771c1.471 2.3 3.695 2.422 5.96 1.36 1.213-.566 1.779-1.694 1.881-2.967.101-1.264.02-2.543.192-3.908.283.445.586.874.843 1.335.592 1.051 1.148 1.133 1.933.207.934-1.102 1.46-2.407 1.647-3.832.04-.313-.106-.678-.233-.991-2.938-7.38-5.954-14.737-8.816-22.147-3.853-9.964-7.584-19.974-11.38-29.963-.106-.271-.297-.595-.546-.722-5.237-2.715-8.725-7.032-11.263-12.225-.546-1.116-1.007-2.279-1.492-3.386-1.698.475-2.95 1.516-4.074 2.877a10.849 10.849 0 0 1-2.967 2.477c-1.653.944-3.14.196-3.422-1.69-.183-1.198-.01-2.445.004-3.431-1.486 1.87-2.26 4.028-1.38 7.032-1.612-1.426-2.22-3.929-1.273-6.121.601-1.407 1.48-2.696 2.244-4.03.262-.461.586-.89.828-1.36.44-.85.238-1.265-.701-1.199-1.987.142-4.005.228-5.94.647-11.794 2.538-21.521 8.635-29.6 17.471a57.417 57.417 0 0 0-8.584 12.26c-.172.329-.328.663-.525 1.066 1.471-1.89 2.806-3.786 4.333-5.515a59.586 59.586 0 0 1 5.004-5.04c1.734-1.542 3.634-2.892 5.466-4.322.045.06.095.121.14.18-1.151 1.302-2.32 2.585-3.463 3.895-3.285 3.771-5.611 8.134-7.669 12.648-1.955 4.291-4.24 8.396-6.723 12.395a1.37 1.37 0 0 0-.233.673c1.376-1.723 2.7-3.489 4.136-5.162 1.47-1.714 2.982-3.411 4.605-4.984 1.602-1.553 3.362-2.938 5.055-4.394.052.04.102.082.153.127-.026.08-.026.178-.072.237-4.555 5.855-7.714 12.463-10.374 19.327-2.593 6.694-4.524 13.563-5.444 20.696-.919 7.124-.764 14.18 1.532 21.07.026.072.005.153.005.44-5.03-6.166-7.401-12.967-6.683-20.786-.951 2.562-1.238 5.228-1.057 7.953.177 2.678.628 5.312 1.492 7.87-1.77-2.412-2.983-5.085-3.772-7.942-1.738-6.29-1.44-12.496 1.022-18.537 1.141-2.8 2.517-5.51 3.785-8.256.097-.207.204-.409.239-.652a44.838 44.838 0 0 0-5.697 8.837c-1.557 3.165-2.584 6.512-3.222 10.13-.454-2.941 1.385-12.527 3.423-18.153 2.109-5.828 5.03-11.227 8.543-16.328-3.093 3.043-5.823 6.364-8.114 10.05-2.304 3.705-3.82 7.74-5.14 11.9.07-1.415.126-2.825.206-4.236.274-4.64.87-9.21 2.68-13.554a29.755 29.755 0 0 1 4.262-7.178c.156-.197.314-.404.47-.607a1.56 1.56 0 0 1-.268-.096zm71.852 40.755c.03-.035.056-.076.085-.11-.17-.187-.332-.385-.51-.566-2.86-2.973-5.667-5.996-8.072-9.364-.289-.404-.622-.819-1.027-1.096-.259-.177-.723-.217-1.012-.102-.146.06-.247.668-.125.895.61 1.138 1.183 2.33 1.991 3.316 1.78 2.18 4 3.888 6.315 5.465.783.53 1.57 1.042 2.355 1.562zm-6.117-80.435a3.873 3.873 0 0 0-.218-.085c-.626 1.223-1.359 2.406-1.86 3.684-.814 2.074-1.485 4.201-2.188 6.316-.078.237 0 .6.146.797.08.106.541.077.698-.05 1.795-1.456 3.623-2.87 5.307-4.443.986-.92 1.696-3.105 1.679-3.863a7976.353 7976.353 0 0 0-5.495 6.39c-.07-.036-.136-.076-.207-.11.086-3.03 1.102-5.835 2.138-8.636z"/><path d="M267.36 70.2a58.533 58.533 0 0 0-9.019 10.342c-4.434 6.476-7.137 13.675-8.948 21.263-1.946 8.176-2.527 16.496-2.73 24.863-.086 3.65-.373 7.286-1.424 10.809-.627 2.108-1.513 4.094-2.943 5.788-.405.48-.9.905-1.431 1.243-.557.354-.945.121-1.107-.52a2.56 2.56 0 0 1-.06-.395c-.173-2.705-.355-5.41-.505-8.118-.23-4.09.221-8.124 1.005-12.138.733-3.751 1.476-7.507 2.027-11.29.268-1.854.172-3.77.132-5.661-.137-7.122 2.35-13.392 6.283-19.16 4.824-7.077 11.127-12.553 18.463-16.89.081-.06.172-.097.259-.137zm19.312 10.838c3.296-.026 5.358 1.41 6.132 4.222.42 1.527.586 3.129.784 4.71.111.901-.071 1.79-.981 2.275-.9.48-1.7.101-2.453-.403-.374-.254-.742-.517-1.111-.774-.82-.583-1.714-.814-2.715-.647-.47.08-.955.076-1.43.127-1.553.161-2.811-.41-3.636-1.69a24.286 24.286 0 0 1-1.854-3.513c-.587-1.355-.148-2.341 1.223-2.891a20.409 20.409 0 0 1 6.04-1.416zm1.395 4.262c-1.602-1.204-3.382-1.204-5.206-.738-.263.065-.446.435-.668.667.283.051.582.192.849.142 1.67-.318 3.332-.663 5.025-.071zm24.144 49.844c-.202.981-.272 2.013-.642 2.923-.729 1.795-2.169 2.169-3.58.88-1.248-1.14-2.431-2.397-3.411-3.766-1.365-1.907-1.139-3.454.51-5.142.46-.471.98-.906 1.537-1.264 1.47-.945 2.857-.673 3.897.742.976 1.326 1.365 2.862 1.506 4.474.032.37.006.743.006 1.119.06.014.116.025.177.034zM281.05 69.36c1.026 3.074 3.342 4.782 6.147 6.002.385.166.77.384 1.087.652.583.479.56 1.126-.132 1.405-1.967.788-3.952 1.557-5.979 2.154-1.102.323-1.907-.4-1.563-1.421.906-2.684.151-5.4.4-8.078.026-.239.026-.475.04-.714zm-2.608.78c0 .899.09 1.814-.02 2.704-.162 1.279.116 2.462.42 3.686a9.473 9.473 0 0 1 .237 2.972c-.09 1.193-.96 1.603-2.068 1.127-2.669-1.137-3.235-3.397-1.38-5.722 1.168-1.456 2.305-2.917 2.811-4.767zm12.704 49.905c1.896.699 3.432 1.87 4.383 3.686.955 1.83.343 3.994-1.209 4.964-.07-.323-.075-.718-.233-1.041-.722-1.476-1.54-2.907-2.213-4.408-.434-.976-.678-2.032-1.006-3.055.095-.05.187-.095.278-.146zm-9.828-29.891c2.148 1.557 4.317 2.407 7.027 2.023-2.562 1.238-5.202.459-7.027-2.023z"/></g><path fill="#242424" d="M48.811 226.378H35.873l-8.848 44.066-9.008-44.066H0l12.864 54.05h20.871Zm44.956 41.89c-.383-.852-.964-1.457-1.717-1.84-1.038 1.903-2.57 3.373-4.597 4.374-2.015 1.013-4.202 1.52-6.55 1.52-3.052 0-5.252-.939-6.586-2.83-1.335-1.878-2.113-4.535-2.336-7.983.989.173 2.373.248 4.177.248 6.228 0 11.11-.915 14.656-2.744 3.546-1.829 5.326-5.202 5.326-10.108 0-3.991-1.668-6.957-4.992-8.934-3.337-1.965-7.402-2.941-12.21-2.941-7.476 0-13.247 1.866-17.312 5.61-4.066 3.732-6.105 9.268-6.105 16.583 0 7.205 1.928 12.84 5.771 16.905 3.856 4.066 9.293 6.105 16.337 6.105 2.792 0 5.45-.408 7.982-1.236 2.546-.816 4.634-2.064 6.266-3.757 1.643-1.693 2.459-3.769 2.459-6.228 0-.988-.186-1.903-.569-2.743Zm-14.124-12.443c-1.668 1.335-4.251 2.002-7.748 2.002.173-10.59 2.138-15.88 5.907-15.88 1.52 0 2.632.668 3.311 2.003.68 1.334 1.026 2.99 1.026 4.955 0 3.275-.84 5.573-2.496 6.92Zm53.1 34.106c-.878 1.47-2.262 2.212-4.177 2.212-3.325 0-4.993-2.459-4.993-7.377 0-1.038.111-2.422.321-4.177-.383-.272-1.025-.457-1.915-.568a19.846 19.846 0 0 0-2.422-.16c-2.62 0-4.82.568-6.586 1.717-1.78 1.149-2.67 2.83-2.67 5.079 0 2.286.915 4.201 2.744 5.721 1.829 1.532 4.102 2.657 6.796 3.361a31.718 31.718 0 0 0 8.156 1.063c5.623 0 10.022-.853 13.222-2.57 3.189-1.73 5.462-4.362 6.797-7.909 1.335-3.547 2.002-8.267 2.002-14.162V237.03l-11.134 1.63c-2.954-1.087-6.253-1.63-9.91-1.63-6.773 0-11.987 1.668-15.645 4.992-3.658 3.336-5.487 8.267-5.487 14.829 0 5.783 1.273 10.355 3.819 13.704 2.533 3.361 6.426 5.042 11.665 5.042 5.128 0 8.922-1.421 11.381-4.263v2.792c0 4.313-.111 7.65-.334 10.034-.21 2.373-.753 4.288-1.63 5.771Zm-2.954-47.983c1.643 0 3.04.37 4.177 1.137v17.448c0 2.46-.346 4.548-1.063 6.265-.704 1.718-1.94 2.57-3.683 2.57-2.187 0-3.558-1.26-4.14-3.805-.568-2.534-.852-5.771-.852-9.7 0-4.264.321-7.638.976-10.159.655-2.508 2.188-3.756 4.585-3.756Zm57.325 38.975c1.965-.878 3.386-2.274 4.264-4.177 1.581 3.275 4.906 4.906 9.984 4.906 1.31 0 2.694-.185 4.14-.569 1.446-.383 2.57-.926 3.398-1.643-1.693-2.175-2.545-5.042-2.545-8.588v-18.425c0-5.685-1.718-9.664-5.153-11.962-3.448-2.286-8.416-3.435-14.903-3.435-5.03 0-9.552.79-13.593 2.372-4.041 1.582-6.068 4.177-6.068 7.785 0 2.286.878 3.992 2.62 5.116 1.755 1.112 3.93 1.68 6.562 1.68.704 0 1.52-.06 2.447-.172.926-.099 1.581-.297 1.964-.569-.21-1.742-.32-3.114-.32-4.09 0-4.967 1.94-7.451 5.807-7.451 1.804 0 3.015.68 3.646 2.039.63 1.371.939 3.274.939 5.733v7.13c-7.637 0-13.94.903-18.907 2.695-4.968 1.804-7.451 5.326-7.451 10.565 0 4.04 1.581 7.118 4.745 9.219 3.163 2.1 7.093 3.15 11.789 3.15 2.459 0 4.67-.444 6.635-1.31Zm1.965-6.957c-.815 1.63-2.15 2.446-4.016 2.446-1.742 0-3.04-.642-3.88-1.915-.853-1.285-1.273-2.941-1.273-4.955 0-3.176.878-5.437 2.62-6.797 1.742-1.371 4.337-2.051 7.773-2.051v7.204c0 2.41-.408 4.424-1.224 6.068Zm80.41-47.588h-17.523v23.256h-11.95v-23.256h-17.523v54.05h17.523v-23.91h11.95v23.91h17.522Zm52.283 16.336c-3.682-3.794-9.045-5.684-16.09-5.684-6.932 0-12.27 2.002-16.002 6.018-3.744 4.016-5.61 9.589-5.61 16.744 0 4.473.877 8.403 2.62 11.789 1.742 3.386 4.238 6.005 7.488 7.859 3.25 1.866 7.081 2.793 11.505 2.793 4.535 0 8.428-.977 11.678-2.904 3.237-1.94 5.709-4.659 7.402-8.156 1.693-3.497 2.545-7.563 2.545-12.197 0-7.043-1.841-12.456-5.536-16.262Zm-11.789 29.608c-.63 3.324-2.063 4.992-4.3 4.992-2.237 0-3.67-1.668-4.3-4.992-.618-3.336-.94-7.649-.94-12.938 0-5.24.322-9.453.94-12.654.63-3.188 2.063-4.782 4.3-4.782 2.237 0 3.67 1.594 4.3 4.782.63 3.2.94 7.415.94 12.654 0 5.289-.31 9.602-.94 12.938Zm48.28-25.666c.371-1.73 1.36-2.583 2.941-2.583 2.57 0 3.856 2.484 3.856 7.452 0 1.804-.173 3.41-.494 4.831.383.272 1.05.47 2.001.606.952.148 1.792.21 2.497.21 2.953 0 5.227-.803 6.846-2.41 1.606-1.618 2.41-3.867 2.41-6.76 0-3.434-1.026-6.128-3.065-8.068-2.052-1.94-4.82-2.904-8.317-2.904-2.78 0-5.202.692-7.254 2.088-2.039 1.396-3.534 3.374-4.46 5.932l-.656-7.365-12.938.976v41.768h16.052V254.23c0-3.336.198-5.857.581-7.575Zm45.648-3.855c.73-.742 1.706-1.1 2.904-1.1 1.26 0 2.187.47 2.78 1.433.606.952.903 2.163.903 3.633 0 .606-.025 1.285-.074 2.052a20.786 20.786 0 0 1-.248 2.05c.383.273 1.038.458 1.965.57.927.11 1.743.16 2.46.16 2.397 0 4.522-.58 6.376-1.755 1.866-1.174 2.792-2.768 2.792-4.794 0-2.83-1.705-4.882-5.116-6.142-3.422-1.248-7.191-1.878-11.344-1.878-5.35 0-9.824 1.038-13.432 3.114-3.608 2.076-5.4 5.35-5.4 9.824 0 2.076.531 3.855 1.594 5.363a15.617 15.617 0 0 0 3.843 3.806c1.508 1.038 3.51 2.212 6.018 3.522 2.187 1.149 3.905 2.125 5.166 2.953 1.26.816 2.31 1.78 3.15 2.904.84 1.112 1.273 2.41 1.273 3.893 0 1.52-.407 2.768-1.235 3.72-.816.95-1.928 1.433-3.35 1.433-1.58 0-2.693-.544-3.323-1.632-.63-1.1-.94-2.632-.94-4.596 0-.977.112-2.348.334-4.09-.383-.273-1.038-.458-1.965-.57-.939-.11-1.754-.172-2.459-.172-2.62 0-4.819.568-6.598 1.68-1.768 1.125-2.657 2.806-2.657 5.042 0 3.225 1.717 5.524 5.153 6.92 3.447 1.384 7.402 2.089 11.875 2.089 5.796 0 10.467-1.125 14.05-3.361 3.572-2.237 5.363-5.784 5.363-10.64 0-2.076-.531-3.868-1.594-5.363a15.152 15.152 0 0 0-3.818-3.77c-1.47-1.012-3.46-2.199-5.969-3.558-2.187-1.15-3.905-2.138-5.165-2.953a12.68 12.68 0 0 1-3.151-2.904c-.84-1.125-1.273-2.422-1.273-3.893 0-1.26.37-2.249 1.112-2.99Zm70.301 25.468c-.383-.853-.964-1.458-1.718-1.841-1.038 1.903-2.57 3.373-4.597 4.374-2.014 1.013-4.201 1.52-6.549 1.52-3.052 0-5.252-.939-6.586-2.83-1.335-1.878-2.114-4.535-2.336-7.983.989.173 2.373.248 4.177.248 6.228 0 11.109-.915 14.656-2.744 3.546-1.829 5.326-5.202 5.326-10.108 0-3.991-1.669-6.957-4.993-8.934-3.336-1.965-7.402-2.941-12.209-2.941-7.476 0-13.247 1.866-17.312 5.61-4.066 3.732-6.105 9.268-6.105 16.583 0 7.205 1.928 12.84 5.77 16.905 3.856 4.066 9.294 6.105 16.337 6.105 2.793 0 5.45-.408 7.983-1.236 2.546-.816 4.634-2.064 6.265-3.757 1.644-1.693 2.46-3.769 2.46-6.228 0-.988-.186-1.903-.569-2.743Zm-14.124-12.444c-1.669 1.335-4.251 2.002-7.748 2.002.173-10.59 2.137-15.88 5.906-15.88 1.52 0 2.632.668 3.312 2.003.68 1.334 1.026 2.99 1.026 4.955 0 3.275-.84 5.573-2.496 6.92Zm43.88-13.024c.742-.742 1.718-1.1 2.917-1.1 1.248 0 2.175.47 2.78 1.433.606.952.902 2.163.902 3.633 0 .606-.025 1.285-.086 2.052-.05.766-.136 1.445-.247 2.05.383.273 1.038.458 1.964.57.94.11 1.755.16 2.46.16 2.41 0 4.535-.58 6.388-1.755 1.854-1.174 2.78-2.768 2.78-4.794 0-2.83-1.705-4.882-5.115-6.142-3.411-1.248-7.192-1.878-11.344-1.878-5.339 0-9.824 1.038-13.42 3.114-3.609 2.076-5.413 5.35-5.413 9.824 0 2.076.531 3.855 1.607 5.363a15.617 15.617 0 0 0 3.843 3.806c1.507 1.038 3.51 2.212 6.018 3.522 2.187 1.149 3.905 2.125 5.165 2.953 1.248.816 2.299 1.78 3.151 2.904.84 1.112 1.26 2.41 1.26 3.893 0 1.52-.407 2.768-1.223 3.72-.815.95-1.94 1.433-3.361 1.433-1.582 0-2.681-.544-3.312-1.632-.63-1.1-.939-2.632-.939-4.596 0-.977.111-2.348.321-4.09-.383-.273-1.038-.458-1.964-.57a20.984 20.984 0 0 0-2.46-.172c-2.62 0-4.806.568-6.586 1.68-1.78 1.125-2.657 2.806-2.657 5.042 0 3.225 1.718 5.524 5.153 6.92 3.436 1.384 7.402 2.089 11.876 2.089 5.783 0 10.466-1.125 14.038-3.361 3.583-2.237 5.363-5.784 5.363-10.64 0-2.076-.532-3.868-1.595-5.363a15.105 15.105 0 0 0-3.806-3.77c-1.47-1.012-3.46-2.199-5.98-3.558-2.175-1.15-3.905-2.138-5.153-2.953a12.263 12.263 0 0 1-3.152-2.904c-.852-1.125-1.272-2.422-1.272-3.893 0-1.26.37-2.249 1.1-2.99Z" class="text"/></g></svg>