<svg xmlns="http://www.w3.org/2000/svg" width="530" height="300" overflow="visible"><g class="signage-logo"><path fill="#a2207f" stroke="#000" stroke-width="3.706546" d="m261.914 0 84.03 48.515v97.03l-84.03 48.515-84.03-48.515v-97.03z" class="i_sERvWd4"/><g fill="#fff" class="uAAifpA5V_"><path d="M260.023 114.961c-3.667 1.265-4.165 5.087-4.503 7.622 0 .091-.025.168-.04.26 0 .026 0 .065-.015.091-.04.3-.077.577-.133.822.133.092.275.183.403.259.995.652 1.707 1.122 1.775 1.722.142 1.423-2 6.513-2.585 7.583 0 .014-.016.091.026.235.55 1.553 5.26 5.387 6.601 5.923 1.54.626 3.991 4.946 4.516 5.888l3.278.821c.312-.25 1.214-.979 1.698-1.84.235-.43-.076-.744-.887-1.423-.483-.393-1.018-.847-1.397-1.438-.703-1.11-5.143-4.359-6.785-5.506a.439.439 0 0 1-.118-.142c-.04-.102-1.044-2.663-.652-5.144.194-1.266 1.749-4.333 3.396-7.581 1.53-3.028 3.105-6.159 3.222-7.178.118-.979-.668-2.31-1.514-3.42a96.977 96.977 0 0 1-6.29 2.441zm47.1-24.923.562-4.609c-.102-.285-.877-1.906-4.803-1.733-2.508.118-5.889.353-8.443.551-.143.444-.342.887-.55 1.344-.157.353-.327.72-.47 1.097 0 .026-.025.066-.05.09-.052.069-1.02 1.24-3.197 1.818-.224.6-.444 1.202-.637 1.763-.193.55-.392 1.07-.576 1.58 2.558-.391 7.152-1.203 9.922-2.427 3.99-1.763 4.868-1.867 4.959-1.88h.026c.091 0 .183.04.25.118.066.076.09.183.066.284-.065.286-1.616 6.903-1.856 7.779-.144.552-.912.861-1.866 1.255-.876.353-1.972.795-2.023 1.32-.276 2.245-.353 5.94.05 6.46.459-.209 1.857-1.943 2.87-3.224 1.815-2.268 2.978-3.654 3.63-3.782.668-.132 1.616-3.628 2.127-7.764zm-89.643 43.17a.355.355 0 0 1 .25-.102c.052 0 .117.016.17.05a.318.318 0 0 1 .13.392c-.025.067-2.427 6.343-2.532 11.12 2.124-2.987 9.487-13.52 10.455-17.736a.324.324 0 0 1 .367-.25c.17.026.287.169.275.342l-.183 2.625c2.034-2.845 5.679-8.259 5.771-9.864 0-.184.157-.312.341-.312s.312.158.312.342l-.091 2.86c1.054-1.499 3.236-4.569 4.776-6.735-.287-1.697-.26-3.589.051-5.531-3.93 1.514-10.039 4.108-11.695 6.29l1.514.51a.365.365 0 0 1 .225.26.34.34 0 0 1-.134.311c-.065.042-5.455 3.876-9.537 8.21l5.52-2.663a.324.324 0 0 1 .342.545c-.077.067-7.662 6.16-9.97 13.418l3.664-4.083zm52.774-64.67c.46-.508.836-.962.914-1.202l.118-.353c.56-1.616 2.049-5.912 2.4-12.32.326-6.069 5.052-9.921 7.57-11.395-.73-.312-2.233-.587-5.26-.052l.402.117c.143.042.235.16.235.302s-.092.274-.225.31c-.052.016-4.946 1.709-6.475 3.865l1.881-.51a.316.316 0 0 1 .379.168.338.338 0 0 1-.092.403c-.042.026-3.458 2.712-4.344 7.336l1.824-1.054c.144-.079.326-.052.418.075a.32.32 0 0 1-.025.428c-.026.027-1.763 1.84-2.65 4.67.3-.224.652-.377 1.043-.377.118 0 .226.052.277.158a.33.33 0 0 1 .026.312c-.026.05-2.27 4.894-2.743 7.881l1.773-.744s.077-.026.134-.026a.36.36 0 0 1 .182.051c.077.051 1.291.846 2.244 1.942z"/><path d="M238.646 117.771c1.228 3.198 2.336 5.027 3.161 6.368.704 1.161 1.214 1.998 1.331 3.012.26 2.101-3.564 5.858-4.466 6.486-.078.6.248 3.614.535 6.29.392 3.64.821 7.754.692 9.136-.233 2.427 1.984 4.879 2.01 4.895a.296.296 0 0 1 .065.101c.017.051.46 1.204 1.933 1.204 1.031 0 2.702 0 3.187-.158-.209-.588-.953-2.387-2.218-3.759-1.554-1.67-1.397-3.522-1.356-3.849-.275-2.334-1.081-9.802-.169-10.793.144-.156.51-.52 1.031-1.044 2.44-2.452 9.88-9.89 10.282-11.72.091-.393.159-.877.224-1.438 1.137-6.892-4.398-16.237-4.45-16.33a.32.32 0 0 1 .117-.443.32.32 0 0 1 .444.117c.193.327 4.007 6.775 4.633 13.025.628-1.88 1.775-3.664 4.203-4.515 4.241-1.449 13.569-5.22 18.597-9.11 5.26-4.085 7.31-7.322 8.054-8.888.822-1.707 1.58-3.812 2.454-6.224.167-.46.339-.926.509-1.396-.521.091-1.081.156-1.734.156-.368 0-.743-.013-1.136-.05-4.855-.443-6.67-8.498-6.75-8.835a.337.337 0 0 1 .249-.391.326.326 0 0 1 .392.248c.016.078 1.79 7.923 6.16 8.326 4.124.377 5.964-1.5 6.213-1.789.144-.368.3-.73.46-1.08.391-.862.754-1.684.693-2.388-.353-4.266 2.385-12.842 3.915-14.34.224-.223.444-.31.652-.3 1.358.133 6.343 3.85 7.152 5.913.444 1.137.21 2.258.026 3.172-.143.693-.274 1.289-.05 1.647.428.691 2.466 1.855 3.513 2.401.377-.877.979-2.585.728-3.406-.352-1.188-.809-3.814-.887-4.294-2.951-4.242-6.342-8.757-6.943-9.001-.953-.353-4.36-.731-5.063-.614-.653.287-6.301 6.45-9.697 10.274a.328.328 0 0 1-.458.026.328.328 0 0 1-.026-.46c.796-.887 1.907-2.127 3.096-3.445a1.197 1.197 0 0 1-.042-.092c-.157-.311-3.824-7.663-2.268-13.169-3.223-.835-3.605-5.857-3.615-6.082 0-.182.133-.342.301-.352.193-.026.342.133.352.3 0 .052.378 5.103 3.405 5.562 0 0 .016.016.026.016h.04c.026 0 3.132 1.096 6.54 0 2.56-.82 4.268-.428 5.405-.168.484.102.877.194 1.162.158.652-.076 2.141-.418 2.01-2.075-.102-1.437-.225-2.467-.693-2.65-.653-.26-4.752-2.427-6.175-3.488-.77-.551-2.15-1.606-3.38-2.544a139.227 139.227 0 0 0-2.36-1.775c-.393-.274-2.127-.667-3.93-.886.168.55.26 1.096.193 1.631a.318.318 0 0 1-.327.286h-.039a.324.324 0 0 1-.287-.367c.25-2.218-2.426-4.985-3.512-6.016-.286 2.3-.444 5.297.077 5.822.132.133.132.342 0 .46-.133.117-.342.131-.46 0-.249-.251-.403-.77-.47-1.408-2.18 1.227-7.227 5.012-7.553 11.042-.353 6.486-1.866 10.844-2.443 12.49l-.118.341c-.156.486-.846 1.24-1.957 2.417-1.32 1.407-3.13 3.354-3.13 4.319 0 1.984-3.145 10.062-5.077 11.746-.209.183-.485.417-.822.718-2.858 2.508-9.563 8.351-15.165 11.614-6.343 3.69-9.152 13.769-6.996 19.418z"/></g><path fill="#242424" d="M48.811 226.378H35.873l-8.848 44.066-9.008-44.066H0l12.864 54.05h20.871Zm44.956 41.89c-.383-.852-.964-1.457-1.717-1.84-1.038 1.903-2.57 3.373-4.597 4.374-2.015 1.013-4.202 1.52-6.55 1.52-3.052 0-5.252-.939-6.586-2.83-1.335-1.878-2.113-4.535-2.336-7.983.989.173 2.373.248 4.177.248 6.228 0 11.11-.915 14.656-2.744 3.546-1.829 5.326-5.202 5.326-10.108 0-3.991-1.668-6.957-4.992-8.934-3.337-1.965-7.402-2.941-12.21-2.941-7.476 0-13.247 1.866-17.312 5.61-4.066 3.732-6.105 9.268-6.105 16.583 0 7.205 1.928 12.84 5.771 16.905 3.856 4.066 9.293 6.105 16.337 6.105 2.792 0 5.45-.408 7.982-1.236 2.546-.816 4.634-2.064 6.266-3.757 1.643-1.693 2.459-3.769 2.459-6.228 0-.988-.186-1.903-.569-2.743Zm-14.124-12.443c-1.668 1.335-4.251 2.002-7.748 2.002.173-10.59 2.138-15.88 5.907-15.88 1.52 0 2.632.668 3.311 2.003.68 1.334 1.026 2.99 1.026 4.955 0 3.275-.84 5.573-2.496 6.92Zm53.1 34.106c-.878 1.47-2.262 2.212-4.177 2.212-3.325 0-4.993-2.459-4.993-7.377 0-1.038.111-2.422.321-4.177-.383-.272-1.025-.457-1.915-.568a19.846 19.846 0 0 0-2.422-.16c-2.62 0-4.82.568-6.586 1.717-1.78 1.149-2.67 2.83-2.67 5.079 0 2.286.915 4.201 2.744 5.721 1.829 1.532 4.102 2.657 6.796 3.361a31.718 31.718 0 0 0 8.156 1.063c5.623 0 10.022-.853 13.222-2.57 3.189-1.73 5.462-4.362 6.797-7.909 1.335-3.547 2.002-8.267 2.002-14.162V237.03l-11.134 1.63c-2.954-1.087-6.253-1.63-9.91-1.63-6.773 0-11.987 1.668-15.645 4.992-3.658 3.336-5.487 8.267-5.487 14.829 0 5.783 1.273 10.355 3.819 13.704 2.533 3.361 6.426 5.042 11.665 5.042 5.128 0 8.922-1.421 11.381-4.263v2.792c0 4.313-.111 7.65-.334 10.034-.21 2.373-.753 4.288-1.63 5.771Zm-2.954-47.983c1.643 0 3.04.37 4.177 1.137v17.448c0 2.46-.346 4.548-1.063 6.265-.704 1.718-1.94 2.57-3.683 2.57-2.187 0-3.558-1.26-4.14-3.805-.568-2.534-.852-5.771-.852-9.7 0-4.264.321-7.638.976-10.159.655-2.508 2.188-3.756 4.585-3.756Zm57.325 38.975c1.965-.878 3.386-2.274 4.264-4.177 1.581 3.275 4.906 4.906 9.984 4.906 1.31 0 2.694-.185 4.14-.569 1.446-.383 2.57-.926 3.398-1.643-1.693-2.175-2.545-5.042-2.545-8.588v-18.425c0-5.685-1.718-9.664-5.153-11.962-3.448-2.286-8.416-3.435-14.903-3.435-5.03 0-9.552.79-13.593 2.372-4.041 1.582-6.068 4.177-6.068 7.785 0 2.286.878 3.992 2.62 5.116 1.755 1.112 3.93 1.68 6.562 1.68.704 0 1.52-.06 2.447-.172.926-.099 1.581-.297 1.964-.569-.21-1.742-.32-3.114-.32-4.09 0-4.967 1.94-7.451 5.807-7.451 1.804 0 3.015.68 3.646 2.039.63 1.371.939 3.274.939 5.733v7.13c-7.637 0-13.94.903-18.907 2.695-4.968 1.804-7.451 5.326-7.451 10.565 0 4.04 1.581 7.118 4.745 9.219 3.163 2.1 7.093 3.15 11.789 3.15 2.459 0 4.67-.444 6.635-1.31Zm1.965-6.957c-.815 1.63-2.15 2.446-4.016 2.446-1.742 0-3.04-.642-3.88-1.915-.853-1.285-1.273-2.941-1.273-4.955 0-3.176.878-5.437 2.62-6.797 1.742-1.371 4.337-2.051 7.773-2.051v7.204c0 2.41-.408 4.424-1.224 6.068Zm80.41-47.588h-17.523v23.256h-11.95v-23.256h-17.523v54.05h17.523v-23.91h11.95v23.91h17.522Zm52.283 16.336c-3.682-3.794-9.045-5.684-16.09-5.684-6.932 0-12.27 2.002-16.002 6.018-3.744 4.016-5.61 9.589-5.61 16.744 0 4.473.877 8.403 2.62 11.789 1.742 3.386 4.238 6.005 7.488 7.859 3.25 1.866 7.081 2.793 11.505 2.793 4.535 0 8.428-.977 11.678-2.904 3.237-1.94 5.709-4.659 7.402-8.156 1.693-3.497 2.545-7.563 2.545-12.197 0-7.043-1.841-12.456-5.536-16.262Zm-11.789 29.608c-.63 3.324-2.063 4.992-4.3 4.992-2.237 0-3.67-1.668-4.3-4.992-.618-3.336-.94-7.649-.94-12.938 0-5.24.322-9.453.94-12.654.63-3.188 2.063-4.782 4.3-4.782 2.237 0 3.67 1.594 4.3 4.782.63 3.2.94 7.415.94 12.654 0 5.289-.31 9.602-.94 12.938Zm48.28-25.666c.371-1.73 1.36-2.583 2.941-2.583 2.57 0 3.856 2.484 3.856 7.452 0 1.804-.173 3.41-.494 4.831.383.272 1.05.47 2.001.606.952.148 1.792.21 2.497.21 2.953 0 5.227-.803 6.846-2.41 1.606-1.618 2.41-3.867 2.41-6.76 0-3.434-1.026-6.128-3.065-8.068-2.052-1.94-4.82-2.904-8.317-2.904-2.78 0-5.202.692-7.254 2.088-2.039 1.396-3.534 3.374-4.46 5.932l-.656-7.365-12.938.976v41.768h16.052V254.23c0-3.336.198-5.857.581-7.575Zm45.648-3.855c.73-.742 1.706-1.1 2.904-1.1 1.26 0 2.187.47 2.78 1.433.606.952.903 2.163.903 3.633 0 .606-.025 1.285-.074 2.052a20.786 20.786 0 0 1-.248 2.05c.383.273 1.038.458 1.965.57.927.11 1.743.16 2.46.16 2.397 0 4.522-.58 6.376-1.755 1.866-1.174 2.792-2.768 2.792-4.794 0-2.83-1.705-4.882-5.116-6.142-3.422-1.248-7.191-1.878-11.344-1.878-5.35 0-9.824 1.038-13.432 3.114-3.608 2.076-5.4 5.35-5.4 9.824 0 2.076.531 3.855 1.594 5.363a15.617 15.617 0 0 0 3.843 3.806c1.508 1.038 3.51 2.212 6.018 3.522 2.187 1.149 3.905 2.125 5.166 2.953 1.26.816 2.31 1.78 3.15 2.904.84 1.112 1.273 2.41 1.273 3.893 0 1.52-.407 2.768-1.235 3.72-.816.95-1.928 1.433-3.35 1.433-1.58 0-2.693-.544-3.323-1.632-.63-1.1-.94-2.632-.94-4.596 0-.977.112-2.348.334-4.09-.383-.273-1.038-.458-1.965-.57-.939-.11-1.754-.172-2.459-.172-2.62 0-4.819.568-6.598 1.68-1.768 1.125-2.657 2.806-2.657 5.042 0 3.225 1.717 5.524 5.153 6.92 3.447 1.384 7.402 2.089 11.875 2.089 5.796 0 10.467-1.125 14.05-3.361 3.572-2.237 5.363-5.784 5.363-10.64 0-2.076-.531-3.868-1.594-5.363a15.152 15.152 0 0 0-3.818-3.77c-1.47-1.012-3.46-2.199-5.969-3.558-2.187-1.15-3.905-2.138-5.165-2.953a12.68 12.68 0 0 1-3.151-2.904c-.84-1.125-1.273-2.422-1.273-3.893 0-1.26.37-2.249 1.112-2.99Zm70.301 25.468c-.383-.853-.964-1.458-1.718-1.841-1.038 1.903-2.57 3.373-4.597 4.374-2.014 1.013-4.201 1.52-6.549 1.52-3.052 0-5.252-.939-6.586-2.83-1.335-1.878-2.114-4.535-2.336-7.983.989.173 2.373.248 4.177.248 6.228 0 11.109-.915 14.656-2.744 3.546-1.829 5.326-5.202 5.326-10.108 0-3.991-1.669-6.957-4.993-8.934-3.336-1.965-7.402-2.941-12.209-2.941-7.476 0-13.247 1.866-17.312 5.61-4.066 3.732-6.105 9.268-6.105 16.583 0 7.205 1.928 12.84 5.77 16.905 3.856 4.066 9.294 6.105 16.337 6.105 2.793 0 5.45-.408 7.983-1.236 2.546-.816 4.634-2.064 6.265-3.757 1.644-1.693 2.46-3.769 2.46-6.228 0-.988-.186-1.903-.569-2.743Zm-14.124-12.444c-1.669 1.335-4.251 2.002-7.748 2.002.173-10.59 2.137-15.88 5.906-15.88 1.52 0 2.632.668 3.312 2.003.68 1.334 1.026 2.99 1.026 4.955 0 3.275-.84 5.573-2.496 6.92Zm43.88-13.024c.742-.742 1.718-1.1 2.917-1.1 1.248 0 2.175.47 2.78 1.433.606.952.902 2.163.902 3.633 0 .606-.025 1.285-.086 2.052-.05.766-.136 1.445-.247 2.05.383.273 1.038.458 1.964.57.94.11 1.755.16 2.46.16 2.41 0 4.535-.58 6.388-1.755 1.854-1.174 2.78-2.768 2.78-4.794 0-2.83-1.705-4.882-5.115-6.142-3.411-1.248-7.192-1.878-11.344-1.878-5.339 0-9.824 1.038-13.42 3.114-3.609 2.076-5.413 5.35-5.413 9.824 0 2.076.531 3.855 1.607 5.363a15.617 15.617 0 0 0 3.843 3.806c1.507 1.038 3.51 2.212 6.018 3.522 2.187 1.149 3.905 2.125 5.165 2.953 1.248.816 2.299 1.78 3.151 2.904.84 1.112 1.26 2.41 1.26 3.893 0 1.52-.407 2.768-1.223 3.72-.815.95-1.94 1.433-3.361 1.433-1.582 0-2.681-.544-3.312-1.632-.63-1.1-.939-2.632-.939-4.596 0-.977.111-2.348.321-4.09-.383-.273-1.038-.458-1.964-.57a20.984 20.984 0 0 0-2.46-.172c-2.62 0-4.806.568-6.586 1.68-1.78 1.125-2.657 2.806-2.657 5.042 0 3.225 1.718 5.524 5.153 6.92 3.436 1.384 7.402 2.089 11.876 2.089 5.783 0 10.466-1.125 14.038-3.361 3.583-2.237 5.363-5.784 5.363-10.64 0-2.076-.532-3.868-1.595-5.363a15.105 15.105 0 0 0-3.806-3.77c-1.47-1.012-3.46-2.199-5.98-3.558-2.175-1.15-3.905-2.138-5.153-2.953a12.263 12.263 0 0 1-3.152-2.904c-.852-1.125-1.272-2.422-1.272-3.893 0-1.26.37-2.249 1.1-2.99Z" class="text"/></g></svg>